<svg width="1280" height="266" viewBox="0 0 1280 266" fill="none" xmlns="http://www.w3.org/2000/svg">
<g clip-path="url(#clip0_16_52)">
<path d="M178.33 265.83H71.18C37.07 265.83 43.74 238.02 31.14 226.9C19.28 216.52 0 212.81 0 180.56V85.27C0 53.02 18.91 48.94 31.14 38.56C43.75 27.81 37.08 0 71.18 0H178.33C212.81 0 206.14 27.81 218.74 38.56C230.6 48.94 249.14 53.02 249.14 85.27V180.55C249.14 212.81 230.6 220.96 218.74 230.97C206.13 241.72 212.81 265.82 178.33 265.82V265.83ZM201.69 198.35V67.48C201.69 54.13 199.1 46.35 182.41 46.35H67.85C51.17 46.35 48.57 54.14 48.57 67.48V198.35C48.57 211.7 51.16 219.48 67.85 219.48H182.41C199.09 219.48 201.69 211.69 201.69 198.35Z" fill="#3B7068"/>
<path d="M442.65 58.0899V60.5299C442.65 65.1499 442.16 71.0099 433.88 71.0099H358.08V124.63H425.83C434.12 124.63 434.6 130.48 434.6 135.11V137.79C434.6 142.43 434.11 148.27 425.83 148.27H358.08V211.63C358.08 219.92 352.23 220.42 347.6 220.42H341.75C337.12 220.42 331.27 219.92 331.27 211.63V55.6499C331.27 51.0299 332.98 47.6099 340.04 47.6099H433.87C442.16 47.6099 442.64 53.4599 442.64 58.0899H442.65Z" fill="#B2DACF"/>
<path d="M526.56 222.36C478.56 222.36 448.82 185.31 448.82 132.92C448.82 80.53 478.56 43.46 526.56 43.46C574.56 43.46 604.31 80.51 604.31 132.92C604.31 185.33 574.57 222.36 526.56 222.36ZM526.56 68.09C490.49 68.09 476.35 95.63 476.35 132.92C476.35 170.21 490.49 197.73 526.56 197.73C559.95 197.73 576.77 170.21 576.77 132.92C576.77 95.63 559.95 68.09 526.56 68.09Z" fill="#B2DACF"/>
<path d="M696.77 222.36C648.77 222.36 619.03 185.31 619.03 132.92C619.03 80.53 648.77 43.46 696.77 43.46C744.77 43.46 774.52 80.51 774.52 132.92C774.52 185.33 744.78 222.36 696.77 222.36ZM696.77 68.09C660.7 68.09 646.56 95.63 646.56 132.92C646.56 170.21 660.7 197.73 696.77 197.73C730.16 197.73 746.98 170.21 746.98 132.92C746.98 95.63 730.16 68.09 696.77 68.09Z" fill="#B2DACF"/>
<path d="M791.67 55.6499C791.67 51.0299 793.38 47.6099 800.45 47.6099H848.7C884.53 47.6099 926.94 74.4199 926.94 131.93C926.94 189.44 884.53 218.21 848.7 218.21H800.45C793.38 218.21 791.67 214.8 791.67 210.17V55.6499ZM847.73 194.32C881.37 194.32 899.16 167.51 899.16 131.93C899.16 96.3499 881.37 71.2499 847.73 71.2499H818.48V194.33H847.73V194.32Z" fill="#B2DACF"/>
<path d="M1060.57 220.16H990.13C967.72 220.16 972.1 201.88 963.82 194.58C956.02 187.75 943.34 185.31 943.34 164.12V101.47C943.34 80.2799 955.77 77.5999 963.82 70.7699C972.11 63.7099 967.72 45.4299 990.13 45.4299H1060.57C1083.23 45.4299 1078.85 63.7099 1087.13 70.7699C1094.93 77.5999 1107.11 80.2799 1107.11 101.47V164.12C1107.11 185.31 1094.93 190.67 1087.13 197.26C1078.84 204.32 1083.23 220.16 1060.57 220.16ZM1075.92 175.81V89.7799C1075.92 81.0099 1074.21 75.8899 1063.25 75.8899H987.94C976.98 75.8899 975.27 81.0099 975.27 89.7799V175.81C975.27 184.58 976.98 189.7 987.94 189.7H1063.25C1074.21 189.7 1075.92 184.58 1075.92 175.81Z" fill="#3B7068"/>
<path d="M1280 101.47V106.35C1280 127.54 1268.8 132.92 1261 139.49C1252.71 146.55 1257.1 162.41 1234.43 162.41H1158.88V211.62C1158.88 219.91 1153.03 220.41 1148.4 220.41H1137.67C1133.04 220.41 1127.19 219.91 1127.19 211.62V101.47C1127.19 80.2799 1139.37 77.5999 1147.41 70.7699C1155.7 63.7099 1151.31 45.4299 1173.73 45.4299H1234.41C1257.08 45.4299 1252.69 63.7099 1260.98 70.7699C1268.78 77.5999 1279.98 80.2799 1279.98 101.47H1280ZM1249.79 89.7799C1249.79 81.0099 1248.08 75.8899 1237.11 75.8899H1171.55C1160.59 75.8899 1158.88 81.0099 1158.88 89.7799V132.92H1237.11C1248.08 132.92 1249.79 127.8 1249.79 119.03V89.7799Z" fill="#3B7068"/>
</g>
<defs>
<clipPath id="clip0_16_52">
<rect width="1280" height="265.83" fill="white"/>
</clipPath>
</defs>
</svg>
